<svg width="24" height="24" viewBox="0 0 24 24" fill="none" xmlns="http://www.w3.org/2000/svg">
<path fill-rule="evenodd" clip-rule="evenodd" d="M12.5829 7.70423C13.9105 9.03182 13.9105 11.1843 12.5829 12.5119C11.2553 13.8394 9.10285 13.8394 7.77526 12.5119C6.44767 11.1843 6.44767 9.03182 7.77526 7.70423C9.10285 6.37664 11.2553 6.37664 12.5829 7.70423ZM14.1039 13.0419C15.5421 11.1228 15.3887 8.38872 13.6435 6.64357C11.7302 4.73019 8.62797 4.73019 6.7146 6.64357C4.80122 8.55694 4.80122 11.6591 6.7146 13.5725C8.43551 15.2934 11.1181 15.4665 13.0325 14.0918L16.4383 17.4977C16.7312 17.7906 17.2061 17.7906 17.499 17.4977C17.7919 17.2048 17.7919 16.7299 17.499 16.437L14.1039 13.0419Z" fill="#96A6AE"/>
</svg>
