<svg width="24" height="24" viewBox="0 0 24 24" fill="none" xmlns="http://www.w3.org/2000/svg">
<path d="M13.5 4.5C13.7761 4.5 14 4.72386 14 5V8C14 9.10457 14.8954 10 16 10H19C19.2761 10 19.5 10.2239 19.5 10.5V13.5C19.5 13.7761 19.2761 14 19 14H16C14.8954 14 14 14.8954 14 16V19C14 19.2761 13.7761 19.5 13.5 19.5H10.5C10.2239 19.5 10 19.2761 10 19V16C10 14.8954 9.10457 14 8 14H5C4.72386 14 4.5 13.7761 4.5 13.5V10.5C4.5 10.2239 4.72386 10 5 10H8C9.10457 10 10 9.10457 10 8V5C10 4.72386 10.2239 4.5 10.5 4.5H13.5Z" fill="#767A85"/>
</svg>
